<?xml version="1.0" standalone="no"?><!DOCTYPE svg PUBLIC "-//W3C//DTD SVG 1.1//EN" "http://www.w3.org/Graphics/SVG/1.1/DTD/svg11.dtd"><svg t="1533518623068" class="icon" style="" viewBox="0 0 1024 1024" version="1.1" xmlns="http://www.w3.org/2000/svg" p-id="9270" xmlns:xlink="http://www.w3.org/1999/xlink" width="16" height="16"><defs><style type="text/css"></style></defs><path d="M704.887079 632.335692l299.407114-38.017872-191.751209-234.415914 56.597019-298.138214-280.918018 110.969371L323.785338 26.487258l18.144242 302.996872-219.99753 207.757764 292.095591 76.260871L542.476105 888.180662 704.887079 632.335692 704.887079 632.335692zM550.086433 780.276093l-99.011015-211.784474-225.234811-58.81657 169.629375-160.207795-13.987572-233.596246 203.891713 112.803135 216.58071-85.617983-43.618427 229.889831 147.799184 180.731224-230.823086 29.341259L550.086433 780.276093 550.086433 780.276093zM311.585409 668.536726l37.092872 37.092872-291.874731 291.874731-37.092872-37.092872 291.874731-291.874731Z" p-id="9271" fill="#8a8a8a"></path></svg>