<?xml version="1.0" standalone="no"?><!DOCTYPE svg PUBLIC "-//W3C//DTD SVG 1.1//EN" "http://www.w3.org/Graphics/SVG/1.1/DTD/svg11.dtd"><svg t="1533288517219" class="icon" style="" viewBox="0 0 1024 1024" version="1.1" xmlns="http://www.w3.org/2000/svg" p-id="18855" xmlns:xlink="http://www.w3.org/1999/xlink" width="16" height="16"><defs><style type="text/css"></style></defs><path d="M235.659636 382.277818m-50.315636 0a50.315636 50.315636 0 1 0 100.631273 0 50.315636 50.315636 0 1 0-100.631273 0Z" fill="#FF3366" p-id="18856"></path><path d="M920.250182 211.409455c-9.960727 0-19.595636 2.373818-28.16 6.888727-82.757818 41.797818-136.843636 73.216-172.776727 97.419636V261.399273c0-51.2-41.658182-92.858182-92.765091-92.858182H116.270545c-51.2 0-92.811636 41.658182-92.811636 92.858182v477.789091c0 51.2 41.658182 92.811636 92.811636 92.811636h510.277819a92.904727 92.904727 0 0 0 92.765091-92.811636v-54.365091c36.026182 24.250182 90.251636 55.808 173.474909 97.792 10.752 5.12 21.643636 7.726545 32.302545 7.726545 49.058909 0 75.496727-49.989818 75.496727-97.093818v-385.861818c0-45.335273-34.350545-95.976727-80.337454-95.976727z m-270.754909 527.778909a23.04 23.04 0 0 1-22.946909 22.993454H116.270545a23.04 23.04 0 0 1-22.993454-22.993454V261.399273c0-12.706909 10.333091-23.04 22.993454-23.04h510.277819c12.613818 0 22.946909 10.333091 22.946909 23.04v477.789091z m281.274182-45.940364c0 12.055273-4.235636 22.528-7.261091 26.670545-84.200727-42.496-182.178909-99.514182-204.194909-121.995636V402.711273c21.690182-22.202182 117.294545-77.917091 200.657454-120.226909a40.401455 40.401455 0 0 1 10.798546 24.901818v385.861818z" fill="#FF3366" p-id="18857"></path></svg>