<?xml version="1.0" standalone="no"?><!DOCTYPE svg PUBLIC "-//W3C//DTD SVG 1.1//EN" "http://www.w3.org/Graphics/SVG/1.1/DTD/svg11.dtd"><svg t="1533518848662" class="icon" style="" viewBox="0 0 1024 1024" version="1.1" xmlns="http://www.w3.org/2000/svg" p-id="21589" xmlns:xlink="http://www.w3.org/1999/xlink" width="16" height="16"><defs><style type="text/css"></style></defs><path d="M117.36826016 487.44484823l371.92033829 2e-8L489.28859843 115.52540996 117.36826016 115.52540996 117.36826016 487.44484823zM210.34901972 208.50526953l185.95971915 0-1e-8 185.95971914L210.34901972 394.46498867 210.34901972 208.50526953zM535.77897823 115.52540996l0 371.92033829 371.92033828 0L907.69931562 115.52540996 535.77897823 115.52540996zM814.71855692 394.46498867L628.75883779 394.46498867 628.75883779 208.50526953l185.95971913 0L814.71855692 394.46498867zM256.83849951 347.97550887l92.97985956 2e-8L349.81835907 254.99474932 256.83849951 254.99474932 256.83849951 347.97550887zM117.36826016 905.85556631l371.92033829 0L489.28859843 533.93522803 117.36826016 533.93522803 117.36826016 905.85556631zM210.34901972 626.91508763l185.95971915-4e-8-1e-8 185.95971915L210.34901972 812.87480674 210.34901972 626.91508763zM768.22907626 254.99474932L675.24831758 254.99474932l0 92.97985955 92.97985955 0L768.22817716 254.99474932zM535.77897823 905.85556631l92.97985956 0L628.75883779 812.87570586 535.77897823 812.87570586 535.77897823 905.85556631zM628.75883779 626.91508763l0 185.95971911 92.97985958 0L721.73869737 626.91508763 628.75883779 626.91508763zM814.71855692 812.87570586L721.73869737 812.87570586 721.73869737 905.85556631l185.95971914 0L907.69841651 719.89494717 814.71855692 719.89494717 814.71855692 812.87570586zM814.71855692 626.91508763l92.97985959-4e-8L907.69841651 533.93522803 814.71855692 533.93522803 814.71855692 626.91508763zM535.77897823 533.93522803l0 92.97985956 92.97985956 4e-8L628.75883779 533.93522803 535.77897823 533.93522803zM256.83849951 766.38532695l92.97985956 0L349.81835907 673.40546738 256.83849951 673.40546738 256.83849951 766.38532695z" fill="#8a8a8a" p-id="21590"></path></svg>