<?xml version="1.0" standalone="no"?><!DOCTYPE svg PUBLIC "-//W3C//DTD SVG 1.1//EN" "http://www.w3.org/Graphics/SVG/1.1/DTD/svg11.dtd"><svg t="1533287894121" class="icon" style="" viewBox="0 0 1535 1024" version="1.1" xmlns="http://www.w3.org/2000/svg" p-id="5876" xmlns:xlink="http://www.w3.org/1999/xlink" width="23.984375" height="16"><defs><style type="text/css"></style></defs><path d="M685.676661 938.516167c-7.223986-4.213992-14.447972-6.621987-19.865961-11.437978-58.393886-46.353909-117.389771-93.309818-175.181658-140.867725-8.427984-7.223986-15.651969-19.263962-18.059965-30.099941-20.46796-98.727807-39.731922-198.057613-59.597884-297.387419-3.009994-13.845973 0-20.46796 14.447972-25.283951 80.667842-28.895944 160.131687-59.597884 240.79953-88.493827 10.23398-3.611993 24.079953-3.611993 34.313933 0 80.667842 28.895944 160.733686 58.995885 240.79953 88.493827 12.641975 4.815991 17.457966 10.23398 14.447971 23.477955-19.865961 100.533804-39.731922 201.067607-60.199882 301.601411-2.407995 10.23398-9.631981 21.069959-18.059965 27.691945-57.791887 47.557907-116.185773 93.911817-175.181658 140.867725-4.213992 4.815991-11.437978 7.223986-18.661963 11.437978z m111.971781-249.829512c1.805996-0.601999 3.009994-1.805996 4.815991-2.407995 0-9.029982 1.805996-18.661964-0.601999-27.089947-12.641975-45.751911-27.089947-90.901822-36.11993-137.857731-7.223986-39.731922-39.731922-61.40388-77.055849-62.005879-46.353909-1.203998-80.667842 25.885949-87.891828 74.647854-5.417989 35.517931-14.447972 69.229865-26.487949 102.941799-4.213992 12.039976-5.417989 24.681952-7.223986 37.323927-0.601999 4.213992 1.805996 9.029982 3.611993 18.059965 9.631981-10.23398 16.253968-17.457966 21.069959-23.477954 8.427984 15.651969 16.253968 30.70194 24.079953 44.547913-6.621987 5.417989-13.243974 11.437978-20.46796 16.855967l1.805997 7.223986c58.393886 3.009994 116.787772 4.213992 174.579659-0.601999l1.805996-7.223986c-7.223986-5.417989-13.845973-10.835979-19.865961-15.651969 7.825985-15.049971 15.651969-30.099941 24.079953-45.149912 6.621987 6.019988 13.243974 13.243974 19.865961 19.865961z" p-id="5877" fill="#f4ea2a"></path><path d="M934.302175 202.873604c-1.805996 12.039976-1.805996 18.059965-3.611993 24.079953-11.437978 44.547913-22.273956 89.095826-33.711934 133.04174-6.019988 22.875955-9.029982 24.681952-30.70194 16.855967-52.975897-19.865961-105.951793-40.333921-159.529688-58.393886-12.641975-4.213992-29.497942-4.213992-42.741917 0-52.975897 18.059965-105.349794 38.527925-157.723692 57.791887-23.477954 8.427984-25.885949 7.223986-31.905938-16.253968-11.437978-43.945914-22.273956-87.28983-33.109935-131.235744-1.805996-6.621987-2.407995-13.845973-4.213992-26.487948 22.273956 8.427984 40.333921 15.049971 57.189889 22.273956 3.611993 1.805996 6.019988 9.029982 6.019988 13.845973 1.805996 29.497942 13.243974 43.945914 40.333921 48.761905 30.099941 5.417989 56.587889-2.407995 77.657848-24.681952 18.059965-18.661964 18.059965-36.119929 4.213992-58.393886-4.213992-6.621987-4.815991-18.661964-1.805996-24.681951 16.253968-28.895944 34.915932-55.985891 52.975896-83.677837 7.825985-12.641975 14.447972-12.039976 22.273957 0 17.457966 27.691946 36.119929 55.383892 52.975896 83.677837 3.611993 6.019988 2.407995 18.059965-1.805996 24.681951-13.845973 21.671958-13.845973 40.333921 4.213992 58.393886 22.875955 23.477954 51.1699 31.905938 83.677836 22.875956 24.079953-6.621987 33.109935-19.865961 34.915932-45.149912 0.601999-6.019988 4.815991-15.049971 9.631981-17.457966 16.253968-6.621987 33.109935-11.437978 54.781893-19.865961zM969.820106 533.370958c-8.427984-42.741917 12.039976-86.085832 46.353909-102.3398 32.507937-15.651969 65.617872-30.70194 98.727807-46.353909 6.019988-3.009994 12.039976-4.815991 24.079953-10.23398-4.213992 15.651969-8.427984 25.885949-10.23398 36.119929-6.621987 43.945914-31.905938 69.229865-73.443856 83.075838-28.895944 10.23398-55.383892 25.885949-85.483833 39.731922zM238.391534 376.851264l28.895944 12.641975c34.313933 15.651969 68.025867 32.507937 102.3398 48.159906 15.049971 6.621987 23.477954 16.253968 25.88595 33.109936 1.805996 15.049971 5.417989 30.70194 9.029982 45.75191 3.009994 13.845973-0.601999 18.661964-14.447972 12.039977-38.527925-18.059965-76.453851-36.119929-114.981775-54.179895-5.417989-2.407995-11.437978-6.621987-13.243974-11.437977-10.23398-26.487948-19.263962-53.577895-28.895944-80.667843l5.417989-5.417989zM1099.851852 499.057025c-9.029982 26.487948-18.059965 52.975897-27.691946 78.861846-1.805996 4.815991-6.621987 9.029982-11.437978 11.437978-36.721928 18.059965-74.045855 34.915932-116.787772 55.383892 2.407995-16.253968 4.815991-27.691946 5.41799-38.527925 1.203998-36.721928 18.661964-58.995885 54.179894-70.433862 25.283951-8.427984 48.761905-22.273956 73.443857-33.711935 6.019988-3.009994 12.039976-4.815991 18.059964-7.223985 1.805996 1.203998 3.009994 3.009994 4.815991 4.213991zM276.31746 494.843034c5.417989 1.805996 10.835979 3.009994 16.253969 5.417989 33.711934 15.651969 66.821869 31.905938 100.533803 46.955908 13.845973 6.019988 21.069959 15.049971 23.477954 30.099941 3.009994 20.46796 7.223986 40.333921 12.039977 64.413875-9.029982-2.407995-14.447972-3.611993-18.661964-5.41799-30.70194-14.447972-61.40388-28.293945-91.503821-43.343915-7.223986-3.611993-16.855967-9.029982-19.263962-16.253968-10.23398-25.283951-18.059965-51.771899-27.089947-77.657849 1.203998-1.203998 3.009994-2.407995 4.213991-4.213991zM921.6602 748.284539c2.407995-12.641975 6.621987-24.681952 7.223986-37.323928 1.203998-34.313933 18.661964-52.975897 49.965902-64.413874 26.487948-9.631981 51.1699-22.875955 81.87184-37.323927-3.009994 13.243974-3.611993 21.069959-6.621987 28.895944-28.293945 80.065844-6.621987 57.189888-83.075838 93.911816l-43.343915 19.865961c-2.407995-1.203998-4.213992-2.407995-6.019988-3.611992zM445.47913 753.100529c-34.313933-16.253968-67.423868-31.905938-99.931805-48.761905-4.815991-2.407995-8.427984-9.029982-10.23398-14.447971-8.427984-24.681952-16.253968-49.363904-25.885949-79.463845 12.641975 4.815991 19.865961 7.223986 27.089947 10.23398 27.089947 12.641975 54.179894 24.079953 80.065843 37.925926 8.427984 4.213992 16.855967 12.641975 19.865962 21.069959 6.019988 19.865961 9.029982 40.333921 12.641975 60.801881 0.601999 3.009994-1.805996 6.019988-3.611993 12.641975z" p-id="5878" fill="#f4ea2a"></path></svg>