<?xml version="1.0" standalone="no"?><!DOCTYPE svg PUBLIC "-//W3C//DTD SVG 1.1//EN" "http://www.w3.org/Graphics/SVG/1.1/DTD/svg11.dtd"><svg t="1533518425607" class="icon" style="" viewBox="0 0 1024 1024" version="1.1" xmlns="http://www.w3.org/2000/svg" p-id="16055" xmlns:xlink="http://www.w3.org/1999/xlink" width="16" height="16"><defs><style type="text/css"></style></defs><path d="M29.345 330.645l3.095-8.727c7.957-23.76 28.732-39.674 54.036-41.439 23.096-1.662 46.191 11.822 57.015 33.039 11.053 21.656 7.957 47.182-8.061 66.19a449.373 449.373 0 0 0-5.858 6.629c44.75 27.408 89.286 54.479 133.599 81.772 16.794 10.387 33.703 20.774 50.498 30.831 9.612 5.636 17.015 3.981 22.209-5.41a370539.925 370539.925 0 0 0 153.267-279.573c-22.209-11.274-36.573-28.512-37.901-54.037-0.881-17.9 5.414-33.26 18.123-45.747 25.194-24.535 66.522-22.215 88.626 4.971 25.415 31.163 16.24 67.625-24.092 95.034 13.15 24.085 26.413 48.288 39.779 72.375 37.021 67.408 73.82 134.596 110.835 201.998 8.511 15.581 13.926 17.022 29.176 7.957 57.237-34.917 114.368-70.056 171.61-105.089 2.652-1.655 5.194-3.311 8.289-5.193-11.828-11.822-19.341-25.194-20.226-41.657-1.656-30.831 19.562-57.795 49.285-62.879 30.941-5.416 59.673 12.265 68.843 42.215 0.666 2.319 1.662 4.75 2.542 7.07v20.776c-9.723 31.161-29.722 49.285-64.091 49.506-1.214 3.534-2.542 7.072-3.534 10.604-33.482 114.816-66.965 229.85-100.448 344.662-4.307 15.028-9.612 18.893-24.751 18.893H222.944c-16.24 0-21.213-3.754-25.636-18.893-27.293-93.156-54.253-186.639-81.55-279.796-7.293-25.194-14.807-50.387-22.211-75.692-25.637 0-44.977-10.166-57.021-32.27-2.874-5.416-4.75-11.49-7.071-17.238-0.11-7.178-0.11-14.032-0.11-20.882z m0 0" p-id="16056" fill="#8a8a8a"></path><path d="M511.471 835.534h270.176c24.092 0 43.317 17.016 45.969 39.89 2.653 23.095-12.486 44.092-35.802 49.286-3.313 0.885-6.851 0.996-10.167 0.996h-540.58c-20.554 0-37.901-12.265-43.87-30.831-6.185-18.566-0.439-39.563 16.024-50.172 8.509-5.41 19.778-9.17 29.728-9.17 89.619-0.442 179.125 0.001 268.522 0.001z m0 0" p-id="16057" fill="#8a8a8a"></path></svg>