<?xml version="1.0" standalone="no"?><!DOCTYPE svg PUBLIC "-//W3C//DTD SVG 1.1//EN" "http://www.w3.org/Graphics/SVG/1.1/DTD/svg11.dtd"><svg t="1533296164802" class="icon" style="" viewBox="0 0 1073 1024" version="1.1" xmlns="http://www.w3.org/2000/svg" p-id="1636" xmlns:xlink="http://www.w3.org/1999/xlink" width="16.765625" height="16"><defs><style type="text/css"></style></defs><path d="M90.112 790.016V382.464s-0.512-33.792 11.264-54.784c10.24-18.432 33.792-32.256 33.792-32.256L204.288 256V176.128c2.56-28.672 17.92-49.664 49.664-49.664h556.544c21.504 0 47.616 20.48 49.664 49.664V256l57.856 34.304s25.088 13.824 39.936 37.376c14.848 24.064 16.384 60.416 16.384 60.416v408.064c0 80.384-69.632 117.248-114.688 117.248H202.752c-52.736 0-112.64-63.488-112.64-123.392z m128 79.36h617.984s41.472 4.608 70.656-25.6c24.576-25.6 24.064-59.904 24.064-59.904V396.8l-360.448 210.432c-26.112 15.36-49.664 12.288-73.728 1.024L134.144 395.776v380.928c1.536 41.472 37.376 90.112 83.968 92.672zM272.384 169.984c-16.896 0-24.064 7.168-24.064 24.064V409.6l253.952 151.04s12.288 8.192 29.696 8.704c18.432 0.512 32.768-10.752 32.768-10.752l250.88-148.992V194.048c0-16.896-7.168-24.064-24.064-24.064H272.384zM860.672 389.12l61.952-39.936-61.952-43.008V389.12zM144.384 347.136L204.8 387.584V307.2l-60.416 39.936zM360.96 394.24c-9.728 0-18.944-11.776-18.944-21.504s9.216-21.504 18.944-21.504h251.904c9.728 0 17.92 11.776 17.92 21.504s-7.68 21.504-17.92 21.504H360.96z m-5.12-103.936c-9.728 0-18.944-11.776-18.944-21.504 0-9.728 9.216-21.504 18.944-21.504h353.28c9.728 0 17.92 11.776 17.92 21.504 0 9.728-8.192 21.504-17.92 21.504h-353.28z" fill="#e6e6e6" p-id="1637"></path></svg>