<?xml version="1.0" standalone="no"?><!DOCTYPE svg PUBLIC "-//W3C//DTD SVG 1.1//EN" "http://www.w3.org/Graphics/SVG/1.1/DTD/svg11.dtd"><svg t="1533378349134" class="icon" style="" viewBox="0 0 1024 1024" version="1.1" xmlns="http://www.w3.org/2000/svg" p-id="6478" xmlns:xlink="http://www.w3.org/1999/xlink" width="16" height="16"><defs><style type="text/css"></style></defs><path d="M512 120.946c87.724 0 170.198 34.162 232.226 96.192 62.03 62.03 96.192 144.502 96.192 232.226 0 87.724-34.162 170.198-96.192 232.228-62.03 62.03-144.502 96.192-232.226 96.192-87.724 0-170.198-34.162-232.228-96.192-62.03-62.032-96.192-144.504-96.192-232.228 0-87.724 34.162-170.196 96.192-232.226C341.802 155.108 424.276 120.946 512 120.946M512 68.946c-210.1 0-380.418 170.32-380.418 380.418 0 210.1 170.32 380.42 380.418 380.42s380.418-170.32 380.418-380.42C892.418 239.264 722.1 68.946 512 68.946L512 68.946z" p-id="6479" fill="#e6e6e6"></path><path d="M747.376 424.49 276.622 424.49c-13.46 0-24.372 11.136-24.372 24.876s10.91 24.876 24.372 24.876l470.756 0c13.46 0 24.374-11.136 24.374-24.876S760.838 424.49 747.376 424.49L747.376 424.49z" p-id="6480" fill="#e6e6e6"></path><path d="M512 189.616c-13.738 0-24.876 10.91-24.876 24.372l0 470.756c0 13.46 11.136 24.372 24.876 24.372s24.876-10.91 24.876-24.372L536.876 213.986C536.876 200.526 525.738 189.616 512 189.616L512 189.616z" p-id="6481" fill="#e6e6e6"></path></svg>