<?xml version="1.0" standalone="no"?><!DOCTYPE svg PUBLIC "-//W3C//DTD SVG 1.1//EN" "http://www.w3.org/Graphics/SVG/1.1/DTD/svg11.dtd"><svg t="1533209011721" class="icon" style="" viewBox="0 0 1024 1024" version="1.1" xmlns="http://www.w3.org/2000/svg" p-id="8112" xmlns:xlink="http://www.w3.org/1999/xlink" width="16" height="16"><defs><style type="text/css"></style></defs><path d="M884.392 476.688h-336.6v-336.6c0-19.422-15.891-35.312-35.313-35.312-19.421 0-35.311 15.89-35.311 35.312v336.6H140.567c-19.421 0-35.312 15.89-35.312 35.311 0 19.422 15.89 35.312 35.312 35.312h336.6v336.6c0 19.421 15.89 35.311 35.311 35.311 19.422 0 35.312-15.89 35.312-35.312V547.312h336.6c19.421 0 35.312-15.89 35.312-35.312 0.001-19.421-15.89-35.312-35.31-35.312z" p-id="8113" fill="#F8F8FF"></path></svg>