<?xml version="1.0" standalone="no"?><!DOCTYPE svg PUBLIC "-//W3C//DTD SVG 1.1//EN" "http://www.w3.org/Graphics/SVG/1.1/DTD/svg11.dtd"><svg t="1533213289251" class="icon" style="" viewBox="0 0 1024 1024" version="1.1" xmlns="http://www.w3.org/2000/svg" p-id="5414" xmlns:xlink="http://www.w3.org/1999/xlink" width="16" height="16"><defs><style type="text/css"></style></defs><path d="M889.018182 563.2c2.327273-4.654545 104.727273-134.981818 114.036363-176.872727 2.327273-18.618182-9.309091-37.236364-13.963636-44.218182-34.909091-48.872727-100.072727-104.727273-153.6-134.981818-30.254545-16.290909-62.836364-25.6-95.418182-34.909091-34.909091-9.309091-69.818182-13.963636-102.4-13.963637-6.981818 0-16.290909 4.654545-20.945454 9.309091-6.981818 4.654545-9.309091 11.636364-9.309091 20.945455 0 6.981818 4.654545 13.963636 9.309091 18.618182 4.654545 6.981818 11.636364 9.309091 20.945454 9.309091 25.6 0 55.854545 4.654545 88.436364 6.981818 27.927273 6.981818 55.854545 18.618182 83.781818 32.581818s128 86.109091 130.327273 123.345455c-4.654545 23.272727-109.381818 165.236364-109.381818 165.236363-6.981818 9.309091-4.654545 16.290909-2.327273 25.6 18.618182 55.854545 16.290909 144.290909 6.981818 186.181818-6.981818 27.927273-13.963636 53.527273-25.6 79.127273-11.636364 27.927273-32.581818 65.163636-51.2 83.781818-11.636364-2.327273-114.036364-48.872727-125.672727-51.2-6.981818 0-13.963636 0-18.618182 2.327273-32.581818 16.290909-148.945455 67.490909-188.509091 69.818182-25.6 2.327273-53.527273 2.327273-81.454545 0-27.927273-2.327273-69.818182-11.636364-86.109091-25.6-13.963636-11.636364-4.654545-141.963636-13.963637-158.254546s-69.818182-69.818182-83.781818-90.763636c-18.618182-23.272727-32.581818-46.545455-44.218182-72.145455-13.963636-25.6-23.272727-53.527273-27.927272-81.454545-4.654545-30.254545-6.981818-88.436364-4.654546-93.090909 0 0 158.254545-67.490909 165.236364-76.8 13.963636-11.636364 44.218182-83.781818 60.509091-109.381818s39.563636-51.2 60.509091-69.818182c25.6-20.945455 51.2-37.236364 83.781818-53.527273 25.6-13.963636 53.527273-25.6 83.781818-30.254545 6.981818-2.327273 13.963636-4.654545 18.618182-13.963637 2.327273-4.654545 4.654545-11.636364 2.327273-20.945454 0-4.654545-6.981818-13.963636-11.636364-16.290909-4.654545-4.654545-11.636364-4.654545-20.945455-4.654546-37.236364 6.981818-69.818182 18.618182-102.4 34.909091-30.254545 16.290909-60.509091 34.909091-88.436363 60.509091-25.6 20.945455-51.2 48.872727-72.145455 79.127273-18.618182 30.254545-37.236364 76.8-51.2 102.4-34.909091 16.290909-137.309091 55.854545-137.309091 55.854545s-27.927273 11.636364-37.236363 23.272728c-11.636364 13.963636-13.963636 37.236364-13.963637 46.545454 0 32.581818 2.327273 65.163636 6.981818 97.745455 9.309091 32.581818 16.290909 62.836364 30.254546 93.090909 13.963636 30.254545 30.254545 58.181818 51.2 86.109091 18.618182 23.272727 74.472727 79.127273 74.472727 79.127272s-2.327273 88.436364 6.981818 139.636364c2.327273 16.290909 9.309091 30.254545 13.963637 34.909091 25.6 25.6 97.745455 41.890909 130.327272 44.218182 83.781818 2.327273 141.963636-6.981818 190.836364-23.272728 27.927273-9.309091 74.472727-37.236364 86.109091-44.218181h4.654545l134.981819 51.2c6.981818 2.327273 25.6 0 32.581818-4.654546 6.981818-4.654545 20.945455-25.6 27.927273-32.581818 27.927273-30.254545 69.818182-132.654545 79.127272-179.2 6.981818-32.581818 9.309091-62.836364 9.309091-95.418182-2.327273-32.581818-4.654545-65.163636-13.963636-95.418182-2.327273-6.981818 0-11.636364 0-13.963636z" p-id="5415" fill="#e6e6e6"></path><path d="M651.636364 535.272727m-58.181819 0a58.181818 58.181818 0 1 0 116.363637 0 58.181818 58.181818 0 1 0-116.363637 0Z" p-id="5416" fill="#e6e6e6"></path><path d="M318.836364 642.327273c11.636364 11.636364 30.254545 11.636364 41.890909 0l81.454545-81.454546c9.309091-9.309091 9.309091-25.6-2.327273-34.909091L349.090909 458.472727c-13.963636-9.309091-30.254545-6.981818-39.563636 6.981818-9.309091 13.963636-6.981818 30.254545 6.981818 39.563637l55.854545 41.890909-53.527272 53.527273c-11.636364 11.636364-11.636364 30.254545 0 41.890909z" p-id="5417" fill="#e6e6e6"></path></svg>