<?xml version="1.0" standalone="no"?><!DOCTYPE svg PUBLIC "-//W3C//DTD SVG 1.1//EN" "http://www.w3.org/Graphics/SVG/1.1/DTD/svg11.dtd"><svg t="1533274547437" class="icon" style="" viewBox="0 0 1024 1024" version="1.1" xmlns="http://www.w3.org/2000/svg" p-id="2590" xmlns:xlink="http://www.w3.org/1999/xlink" width="16" height="16"><defs><style type="text/css"></style></defs><path d="M1000.727273 388.654545c4.654545-20.945455-6.981818-37.236364-13.963637-44.218181-34.909091-48.872727-97.745455-104.727273-153.6-134.981819-30.254545-16.290909-62.836364-27.927273-95.418181-34.90909-32.581818-9.309091-67.490909-13.963636-102.4-13.963637-18.618182-4.654545-79.127273-116.363636-93.09091-130.327273-4.654545-6.981818-11.636364-6.981818-20.945454-6.981818-34.909091 9.309091-67.490909 18.618182-102.4 34.909091-30.254545 16.290909-60.509091 34.909091-88.436364 60.509091-25.6 20.945455-48.872727 48.872727-72.145454 79.127273-18.618182 30.254545-37.236364 76.8-51.2 102.4-34.909091 16.290909-137.309091 55.854545-137.309091 55.854545s-25.6 11.636364-37.236364 23.272728-13.963636 37.236364-13.963636 46.545454c0 32.581818 2.327273 65.163636 9.309091 100.072727 9.309091 32.581818 16.290909 62.836364 30.254545 93.090909s30.254545 58.181818 51.2 86.109091c18.618182 25.6 74.472727 79.127273 74.472727 79.127273s-4.654545 86.109091 6.981819 139.636364c2.327273 16.290909 9.309091 27.927273 13.963636 34.909091 25.6 25.6 95.418182 44.218182 130.327273 44.218181 83.781818 4.654545 144.290909-6.981818 190.836363-23.272727 25.6-9.309091 74.472727-37.236364 86.109091-44.218182h4.654546l134.981818 51.2c6.981818 2.327273 25.6 0 32.581818-4.654545 6.981818-4.654545 23.272727-25.6 27.927273-32.581818 27.927273-30.254545 69.818182-132.654545 76.8-176.872728 4.654545-32.581818 9.309091-62.836364 9.309091-95.418181-2.327273-32.581818-4.654545-65.163636-13.963637-95.418182v-13.963637c4.654545-6.981818 107.054545-137.309091 116.363637-179.2zM358.4 642.327273c-11.636364 11.636364-30.254545 11.636364-41.890909 0s-11.636364-30.254545 0-41.890909l53.527273-53.527273-55.854546-41.890909c-13.963636-9.309091-16.290909-27.927273-6.981818-39.563637 9.309091-13.963636 27.927273-16.290909 39.563636-6.981818l90.763637 65.163637c11.636364 9.309091 13.963636 25.6 2.327272 34.909091l-81.454545 83.781818zM651.636364 593.454545c-32.581818 0-58.181818-25.6-58.181819-58.181818s25.6-58.181818 58.181819-58.181818 58.181818 25.6 58.181818 58.181818-25.6 58.181818-58.181818 58.181818z" p-id="2591" fill="#f4ea2a"></path></svg>