<?xml version="1.0" standalone="no"?><!DOCTYPE svg PUBLIC "-//W3C//DTD SVG 1.1//EN" "http://www.w3.org/Graphics/SVG/1.1/DTD/svg11.dtd"><svg t="1533518343159" class="icon" style="" viewBox="0 0 1024 1024" version="1.1" xmlns="http://www.w3.org/2000/svg" p-id="13734" xmlns:xlink="http://www.w3.org/1999/xlink" width="16" height="16"><defs><style type="text/css"></style></defs><path d="M990.90682 588.428377l-92.55547 92.679451-0.073989 110.582641c-0.049992 58.843763-47.798496 106.593267-106.643259 106.642259l-110.232695 0.074988-92.978404 93.12838c-42.313358 42.387346-110.956582 42.387346-153.294935 0l-92.704447-92.854423-110.257692 0.074988c-58.843763 0.049992-106.518279-47.623524-106.468286-106.468286l0.074988-110.582641-93.103384-93.277357c-42.338354-42.388346-42.338354-111.155551 0-153.543896l93.377341-93.527318 0.074988-108.536962c0.049992-58.844762 47.798496-106.593267 106.643259-106.643259l108.188016-0.074988 94.175217-94.325192c42.338354-42.387346 110.981578-42.387346 153.294935 0l93.901259 94.051235 109.908746-0.074988c58.843763-0.049992 106.518279 47.624524 106.468287 106.468286l-0.074989 110.232696 92.280514 92.43049c42.313358 42.388346 42.313358 111.155551 0 153.543896zM512.199969 225.339376c-158.356141 0-286.740987 128.384846-286.740987 286.740986 0 158.355141 128.384846 286.740987 286.740987 286.740987 158.355141 0 286.739987-128.384846 286.739986-286.740987 0-158.355141-128.384846-286.740987-286.739986-286.740986z m0 498.679716c-117.040627 0-211.939729-94.899103-211.93973-211.93873S395.159342 300.141633 512.199969 300.141633c117.039627 0 211.938729 94.899103 211.938729 211.938729S629.239595 724.019092 512.199969 724.019092z" p-id="13735" fill="#f4ea2a"></path></svg>