<?xml version="1.0" standalone="no"?><!DOCTYPE svg PUBLIC "-//W3C//DTD SVG 1.1//EN" "http://www.w3.org/Graphics/SVG/1.1/DTD/svg11.dtd"><svg t="1533430237462" class="icon" style="" viewBox="0 0 1024 1024" version="1.1" xmlns="http://www.w3.org/2000/svg" p-id="2137" xmlns:xlink="http://www.w3.org/1999/xlink" width="16" height="16"><defs><style type="text/css"></style></defs><path d="M717.358111 79.817883l-409.322479 0c-36.676317 0-66.514903 29.838585-66.514903 66.514903l0 736.780463c0 36.676317 29.838585 66.514903 66.514903 66.514903l409.322479 0c36.676317 0 66.514903-29.838585 66.514903-66.514903l0-736.780463C783.873014 109.655446 754.034429 79.817883 717.358111 79.817883zM292.687062 253.779937l440.021665 0 0 480.953913-440.021665 0L292.687062 253.779937zM308.036655 130.983193l409.322479 0c8.463766 0 15.349593 6.885827 15.349593 15.349593l0 56.281841-440.021665 0 0-56.281841C292.687062 137.869021 299.57289 130.983193 308.036655 130.983193zM717.358111 898.462842l-409.322479 0c-8.463766 0-15.349593-6.885827-15.349593-15.349593l0-97.214089 440.021665 0 0 97.214089C732.707704 891.578038 725.8229 898.462842 717.358111 898.462842z" p-id="2138" fill="#dbdbdb"></path><path d="M676.425863 816.598346l-81.864496 0c-14.129812 0-25.582655 11.452843-25.582655 25.582655s11.452843 25.582655 25.582655 25.582655l81.864496 0c14.129812 0 25.582655-11.452843 25.582655-25.582655S690.555675 816.598346 676.425863 816.598346z" p-id="2139" fill="#dbdbdb"></path><path d="M430.833399 816.598346l-81.864496 0c-14.128789 0-25.582655 11.452843-25.582655 25.582655s11.453866 25.582655 25.582655 25.582655l81.864496 0c14.128789 0 25.582655-11.452843 25.582655-25.582655S444.962188 816.598346 430.833399 816.598346z" p-id="2140" fill="#dbdbdb"></path></svg>