<?xml version="1.0" standalone="no"?><!DOCTYPE svg PUBLIC "-//W3C//DTD SVG 1.1//EN" "http://www.w3.org/Graphics/SVG/1.1/DTD/svg11.dtd"><svg t="1533288544015" class="icon" style="" viewBox="0 0 1024 1024" version="1.1" xmlns="http://www.w3.org/2000/svg" p-id="19029" xmlns:xlink="http://www.w3.org/1999/xlink" width="16" height="16"><defs><style type="text/css"></style></defs><path d="M904.533333 669.866667c0-2.133333-2.133333-6.4-2.133333-8.533333-27.733333-142.933333-202.666667-251.733333-245.333333-285.866667-23.466667-19.2-40.533333-44.8-46.933333-76.8 0-6.4-2.133333-12.8-2.133333-17.066667 0-55.466667 40.533333-102.4 96-110.933333 6.4 0 10.666667-2.133333 17.066667-2.133333 23.466667 0 44.8 6.4 64 19.2 21.333333 14.933333 46.933333 42.666667 61.866667 61.866667 46.933333 57.6 81.066667 140.8 87.466667 228.266667 0 10.666667 2.133333 19.2 2.133333 29.866667C936.533333 590.933333 910.933333 657.066667 904.533333 669.866667zM392.533333 349.866667c-4.266667 6.4-8.533333 12.8-12.8 17.066667-19.2 23.466667-44.8 42.666667-76.8 46.933333-6.4 0-12.8 2.133333-17.066667 2.133333-14.933333 0-27.733333-2.133333-40.533333-8.533333-34.133333-14.933333-61.866667-44.8-68.266667-85.333333-2.133333-6.4-2.133333-12.8-2.133333-19.2l0 0c0-23.466667 6.4-44.8 19.2-61.866667 12.8-21.333333 42.666667-46.933333 59.733333-61.866667 57.6-46.933333 138.666667-83.2 226.133333-89.6 12.8-2.133333 23.466667-2.133333 34.133333-2.133333l2.133333 0c78.933333 0 142.933333 23.466667 155.733333 29.866667C537.6 138.666667 435.2 288 392.533333 349.866667zM364.8 646.4c23.466667 19.2 40.533333 42.666667 46.933333 74.666667 2.133333 6.4 2.133333 12.8 2.133333 19.2 0 53.333333-38.4 100.266667-91.733333 108.8-6.4 2.133333-12.8 2.133333-19.2 2.133333l0 0c-21.333333 0-42.666667-6.4-59.733333-19.2-21.333333-12.8-46.933333-40.533333-61.866667-59.733333-46.933333-57.6-83.2-136.533333-89.6-224-2.133333-12.8-2.133333-23.466667-2.133333-36.266667L89.6 512c0-76.8 23.466667-138.666667 29.866667-151.466667C140.8 505.6 320 612.266667 364.8 646.4zM648.533333 652.8c4.266667-4.266667 8.533333-8.533333 12.8-12.8 17.066667-14.933333 38.4-27.733333 61.866667-29.866667 6.4 0 12.8-2.133333 17.066667-2.133333 55.466667 0 102.4 40.533333 113.066667 96 0 6.4 2.133333 10.666667 2.133333 17.066667l0 2.133333c0 23.466667-6.4 44.8-19.2 64-14.933333 21.333333-42.666667 46.933333-61.866667 61.866667-59.733333 46.933333-140.8 81.066667-230.4 87.466667-8.533333 0-19.2 2.133333-27.733333 2.133333 0 0 0 0 0 0-83.2 0-151.466667-25.6-164.266667-32 42.666667-6.4 81.066667-25.6 117.333333-51.2C556.8 789.333333 622.933333 684.8 648.533333 652.8z" p-id="19030" fill="#1296db"></path></svg>