<?xml version="1.0" standalone="no"?><!DOCTYPE svg PUBLIC "-//W3C//DTD SVG 1.1//EN" "http://www.w3.org/Graphics/SVG/1.1/DTD/svg11.dtd"><svg t="1533287949009" class="icon" style="" viewBox="0 0 1024 1024" version="1.1" xmlns="http://www.w3.org/2000/svg" p-id="7017" xmlns:xlink="http://www.w3.org/1999/xlink" width="16" height="16"><defs><style type="text/css"></style></defs><path d="M308.048423 286.837844H204.527698c-19.73753 0-35.762505 15.917528-35.762505 35.57217v569.553811c0 19.656689 16.025998 35.600823 35.762505 35.600822h103.520725c19.736507 0 35.762505-15.944134 35.762505-35.600822V322.410014c0-19.654642-16.025998-35.57217-35.762505-35.57217zM580.159868 73.234955H476.584907c-19.710924 0-35.733852 15.94618-35.733852 35.600822v783.128048c0 19.656689 16.022928 35.600823 35.733852 35.600822h103.574961c19.736507 0 35.735899-15.944134 35.735899-35.600822V108.835777c0-19.654642-15.999392-35.600823-35.735899-35.600822zM852.219123 500.385475H748.697375c-19.763113 0-35.760458 15.971763-35.760458 35.600822v355.976504c0 19.656689 15.997346 35.600823 35.760458 35.600823h103.521748c19.762089 0 35.759435-15.944134 35.759436-35.600823V535.987321c0-19.630083-15.998369-35.601846-35.759436-35.601846z" p-id="7018" fill="#85494f" data-spm-anchor-id="a313x.7781069.0.i17" class="selected"></path></svg>