<?xml version="1.0" standalone="no"?><!DOCTYPE svg PUBLIC "-//W3C//DTD SVG 1.1//EN" "http://www.w3.org/Graphics/SVG/1.1/DTD/svg11.dtd"><svg t="1533350942574" class="icon" style="" viewBox="0 0 1024 1024" version="1.1" xmlns="http://www.w3.org/2000/svg" p-id="2221" xmlns:xlink="http://www.w3.org/1999/xlink" width="16" height="16"><defs><style type="text/css"></style></defs><path d="M466.69056 804.488541c-90.212628 0-175.009919-35.130102-238.789525-98.914824-131.605364-131.650389-131.605364-345.864192-0.007163-477.524814 63.785745-63.793932 148.58406-98.920964 238.796688-98.920964 90.214674 0 175.011966 35.128055 238.791571 98.920964 131.612527 131.660622 131.612527 345.874425 0 477.524814C641.702526 769.358439 556.905234 804.488541 466.69056 804.488541zM466.69056 177.066765c-77.399811 0-150.167115 30.142507-204.894553 84.876086-112.910583 112.965841-112.910583 296.77824 0.007163 409.737942 54.720276 54.726415 127.487579 84.866876 204.88739 84.866876 77.403904 0 150.169161-30.139437 204.895577-84.866876 112.919792-112.959701 112.919792-296.772101 0-409.737942C616.859721 207.208249 544.093441 177.066765 466.69056 177.066765z" p-id="2222" fill="#9ba88d"></path><path d="M860.908016 894.871037 726.797599 760.77597 760.691547 726.883045 894.802988 860.976066Z" p-id="2223" fill="#9ba88d"></path></svg>