<?xml version="1.0" standalone="no"?><!DOCTYPE svg PUBLIC "-//W3C//DTD SVG 1.1//EN" "http://www.w3.org/Graphics/SVG/1.1/DTD/svg11.dtd"><svg t="1533518715491" class="icon" style="" viewBox="0 0 1024 1024" version="1.1" xmlns="http://www.w3.org/2000/svg" p-id="15940" xmlns:xlink="http://www.w3.org/1999/xlink" width="16" height="16"><defs><style type="text/css"></style></defs><path d="M903.1 919.2H125.9S64 928.8 64 846.3V179.1s1.4-74.3 77-74.3h272.4s33-6.9 60.5 35.8c26.1 41.3 41.3 67.4 41.3 67.4s9.6 11 31.6 11h350.8s61.9-6.9 61.9 61.9v569.5s9.6 68.8-56.4 68.8z m-57.8-522.7c0-16.5-13.8-30.3-30.3-30.3H209.8c-17.9 0-31.6 13.8-31.6 30.3v2.7c0 17.9 13.8 31.6 31.6 31.6h605.3c16.5 0 30.3-13.8 30.3-31.6v-2.7z m0 0" p-id="15941" fill="#8a8a8a"></path></svg>