<?xml version="1.0" standalone="no"?><!DOCTYPE svg PUBLIC "-//W3C//DTD SVG 1.1//EN" "http://www.w3.org/Graphics/SVG/1.1/DTD/svg11.dtd"><svg t="1533370920801" class="icon" style="" viewBox="0 0 1024 1024" version="1.1" xmlns="http://www.w3.org/2000/svg" p-id="1735" xmlns:xlink="http://www.w3.org/1999/xlink" width="16" height="16"><defs><style type="text/css"></style></defs><path d="M880.907509 369.162527c-13.655523-3.665961-27.972719-5.35785-44.998639-5.35785l-116.638136-0.467063c14.469235-66.074874 16.904289-165.205431 16.904289-224.324223 0-68.682645-55.880973-124.551454-124.550238-124.551454-68.661968 0-124.549022 55.887054-124.549022 124.551454l0 24.91248c0 137.350694-111.750998 249.101693-249.098044 249.101693l-124.550238 0c-54.950495 0-99.637758 44.687263-99.637758 99.637758l0 398.564411c0 54.950495 44.687263 99.632893 99.637758 99.632893l124.550238 0c13.771072 0 24.913697-11.141408 24.913697-24.910048L262.891417 461.569317c153.201658-12.717747 274.014173-141.224645 274.014173-297.66169l0-24.913697c0-41.219561 33.523962-74.743522 74.720412-74.743522 41.2001 0 74.725278 33.523962 74.725278 74.743522 0 112.219278-8.708786 202.038974-23.278975 240.218974-2.921579 7.636-1.888931 16.224371 2.748863 22.967599 4.6159 6.737146 12.253116 10.809355 20.43524 10.8276l149.56124 0.585046c12.638687 0 22.908 1.167658 32.239537 3.641635 66.343679 17.783682 105.847025 86.215767 88.082804 152.542418-19.889116 74.159693-121.628659 331.22579-131.192512 355.34037-13.498619 22.209837-37.268983 35.432353-63.875784 35.491953-1.537417 0-3.018884 0.154471-4.456563 0.40868l-522.541767 0.021894c-13.775937 0-24.919778 11.141408-24.919778 24.91248 0 13.76864 11.143841 24.910048 24.919778 24.910048l526.99833-0.019461c1.714998 0 3.389859-0.173932 4.989307-0.505985 42.620751-1.752704 81.694739-25.066952 102.86828-61.765485 0.60329-1.054542 1.111708-2.145572 1.560527-3.257281 4.573329-11.469812 112.237523-282.407935 133.7419-362.624856C1029.14297 489.853411 973.827582 394.055546 880.907509 369.162527L880.907509 369.162527 880.907509 369.162527M213.060375 961.075371l-99.632893 0c-27.467949 0-49.831042-22.361876-49.831042-49.826177L63.59644 512.683567c0-27.467949 22.363093-49.831042 49.831042-49.831042l99.632893 0L213.060375 961.075371 213.060375 961.075371 213.060375 961.075371M213.060375 961.075371 213.060375 961.075371z" p-id="1736" fill="#2c2c2c"></path></svg>