<?xml version="1.0" standalone="no"?><!DOCTYPE svg PUBLIC "-//W3C//DTD SVG 1.1//EN" "http://www.w3.org/Graphics/SVG/1.1/DTD/svg11.dtd"><svg t="1533518769326" class="icon" style="" viewBox="0 0 1024 1024" version="1.1" xmlns="http://www.w3.org/2000/svg" p-id="16771" xmlns:xlink="http://www.w3.org/1999/xlink" width="16" height="16"><defs><style type="text/css"></style></defs><path d="M808.7 267.2l-4.4-7.9-55.5 31 4.4 7.9c37.2 66.6 56.9 142 56.9 218.1s-19.7 151.6-56.9 218.1l-4.4 7.9 55.5 31 4.4-7.9c42.5-76.1 64.9-162.2 64.9-249.2s-22.4-172.9-64.9-249zM692.8 324.8l-55.5 31 4.4 7.9c26.1 46.6 39.8 99.4 39.8 152.7 0 53.3-13.8 106.1-39.8 152.7l-4.4 7.9 55.5 31 4.4-7.9c31.3-56.1 47.9-119.6 47.9-183.7s-16.6-127.7-47.9-183.7l-4.4-7.9zM285.4 290.4l-55.5-31-4.4 7.9c-42.5 76-64.9 162.2-64.9 249.2 0 86.9 22.5 173.1 64.9 249.2l4.4 7.9 55.5-31-4.4-7.9c-37.2-66.6-56.9-142-56.9-218.1S243.8 365 281 298.5l4.4-8.1zM396.9 355.8l-55.5-31-4.4 7.9c-31.3 56.1-47.9 119.6-47.9 183.7s16.6 127.7 47.9 183.7l4.4 7.9 55.5-31-4.4-7.9c-26.1-46.6-39.8-99.4-39.8-152.7 0-53.3 13.8-106.1 39.8-152.7l4.4-7.9z" fill="#8a8a8a" p-id="16772"></path><path d="M517.1 524.1m-60.3 0a60.3 60.3 0 1 0 120.6 0 60.3 60.3 0 1 0-120.6 0Z" fill="#8a8a8a" p-id="16773"></path></svg>