<?xml version="1.0" standalone="no"?><!DOCTYPE svg PUBLIC "-//W3C//DTD SVG 1.1//EN" "http://www.w3.org/Graphics/SVG/1.1/DTD/svg11.dtd"><svg t="1533518697188" class="icon" style="" viewBox="0 0 1317 1024" version="1.1" xmlns="http://www.w3.org/2000/svg" p-id="15139" xmlns:xlink="http://www.w3.org/1999/xlink" width="20.578125" height="16"><defs><style type="text/css"></style></defs><path d="M325.064642 353.023234c62.086036 0 112.42328-50.705314 112.423281-113.277202S387.20957 126.468829 325.064642 126.468829s-112.42328 50.705314-112.42328 113.26248 50.337244 113.291925 112.42328 113.291925zM663.600644 496.128824l-86.393375-93.121693-224.31654 264.833679-91.973315-84.68553-133.741891 172.197837h932.600875V583.15528L840.539222 264.980906l-176.938578 231.147918z" p-id="15140" fill="#8a8a8a"></path><path d="M65.428111 754.749482V139.086266c0-40.355187 27.855533-73.172303 62.100759-73.172302h937.415229c34.245227 0 62.100759 32.831838 62.10076 73.172302v615.663216c0 40.355187-27.855533 73.172303-62.10076 73.172303H127.52887c-34.245227 0-62.100759-32.890729-62.100759-73.172303z m1127.044859 0V139.086266C1192.458247 62.395215 1135.260179 0 1064.944099 0H127.52887C57.21279 0 0 62.395215 0 139.086266v615.663216c0 76.691051 57.21279 139.086266 127.52887 139.086267h937.415229c70.31608 0 127.514148-62.395215 127.514148-139.086267z" p-id="15141" fill="#8a8a8a"></path><path d="M1240.704854 141.63331l0.147228 85.303888c8.833678 12.646883 11.424891 24.675408 11.424891 42.31332v615.663216c0 40.355187-27.855533 73.172303-62.10076 73.172302H252.746262c-20.361629 0-29.740051-2.944559-42.828618-20.288014-17.505406 0.426961-57.227513 0-75.086266 0 16.195077 58.582011 61.835749 86.187256 117.870715 86.187255h937.459398c70.31608 0 127.52887-62.395215 127.52887-139.086266V269.250518c0-58.213941-30.343685-106.931677-76.985507-127.617208z" p-id="15142" fill="#8a8a8a"></path></svg>