<?xml version="1.0" standalone="no"?><!DOCTYPE svg PUBLIC "-//W3C//DTD SVG 1.1//EN" "http://www.w3.org/Graphics/SVG/1.1/DTD/svg11.dtd"><svg t="1533288181653" class="icon" style="" viewBox="0 0 1024 1024" version="1.1" xmlns="http://www.w3.org/2000/svg" p-id="9071" xmlns:xlink="http://www.w3.org/1999/xlink" width="16" height="16"><defs><style type="text/css"></style></defs><path d="M957.2 470.6c-62.9-78.3-247.1-236.5-453.3-236.5-208.6 0-382.6 162.2-438.7 239.2-15.8 21.6-16.3 50.7-1.5 72.9 53.2 79.3 221.2 246.6 440.2 246.6 216.4 0 394.9-163.1 454.8-243.7 17.4-23.5 16.8-55.7-1.5-78.5zM507.6 721.5c-114.2 0-206.7-93.1-206.7-208s92.5-208 206.7-208c114.2 0 206.7 93.1 206.7 208 0 114.8-92.6 208-206.7 208z m0-344.8c-75 0-135.8 61.2-135.8 136.7s60.8 136.7 135.8 136.7c75 0 135.8-61.2 135.8-136.7s-60.8-136.7-135.8-136.7z" p-id="9072" fill="#3eb370"></path></svg>