<?xml version="1.0" standalone="no"?><!DOCTYPE svg PUBLIC "-//W3C//DTD SVG 1.1//EN" "http://www.w3.org/Graphics/SVG/1.1/DTD/svg11.dtd"><svg t="1533288693201" class="icon" style="" viewBox="0 0 1024 1024" version="1.1" xmlns="http://www.w3.org/2000/svg" p-id="23402" xmlns:xlink="http://www.w3.org/1999/xlink" width="16" height="16"><defs><style type="text/css"></style></defs><path d="M157.615686 0h708.768628c86.337255 0 157.615686 70.27451 157.615686 156.611765v710.77647c0 86.337255-71.278431 156.611765-157.615686 156.611765h-708.768628c-86.337255 0-157.615686-70.27451-157.615686-156.611765v-710.77647c0-86.337255 71.278431-156.611765 157.615686-156.611765z" fill="#FFFFFF" p-id="23403"></path><path d="M944.690196 399.560784c-105.411765-71.278431-211.827451-143.560784-317.239216-214.839215l-93.364705-63.247059c-7.027451-5.019608-15.058824-7.027451-24.094118-5.019608-7.027451 1.003922-12.047059 5.019608-18.070588 9.035294-78.305882 51.2-157.615686 102.4-235.921569 153.6-59.231373 38.14902-117.458824 76.298039-176.690196 114.447059-13.05098 8.031373-13.05098 22.086275-1.003922 32.12549 1.003922 1.003922 2.007843 2.007843 4.015687 3.011765 139.545098 94.368627 278.086275 189.741176 418.635294 283.105882 11.043137 7.027451 19.07451 15.058824 15.058823 29.113726v12.047058c0 3.011765-1.003922 6.023529-4.015686 8.031373-3.011765 2.007843-6.023529 0-8.031373-1.003922-86.337255-58.227451-172.67451-116.454902-259.011764-175.686274-4.015686-3.011765-7.027451-5.019608-12.047059-6.023529-9.035294-4.015686-16.062745 1.003922-16.062745 11.043137v108.423529c2.007843 14.054902 11.043137 23.090196 22.086274 31.121569 86.337255 59.231373 173.678431 117.458824 260.015687 176.690196 10.039216 7.027451 23.090196 7.027451 34.133333 0l268.047059-178.698039c13.05098-9.035294 20.078431-21.082353 20.078431-37.145098v-159.62353c0-4.015686 1.003922-6.023529 4.015686-8.031372 40.156863-28.109804 80.313725-56.219608 121.47451-85.333334 13.05098-13.05098 12.047059-27.105882-2.007843-37.145098z m-225.882353 27.105883c-59.231373 41.160784-119.466667 81.317647-178.698039 122.478431-4.015686 3.011765-9.035294 4.015686-14.054902 2.007843-5.019608-3.011765-6.023529-7.027451-6.023529-12.047059V466.823529l-56.219608 38.14902c-21.082353 14.054902-41.160784 28.109804-62.243138 42.164706-5.019608 3.011765-9.035294 5.019608-15.058823 3.011765-5.019608-3.011765-6.023529-8.031373-6.023529-13.050981v-239.937255c0-3.011765 0-5.019608 1.003921-8.031372 2.007843-7.027451 9.035294-11.043137 16.062745-7.027451 2.007843 1.003922 4.015686 2.007843 6.02353 4.015686l111.435294 75.294118 5.019608 3.011764v-5.019607-63.247059c0-5.019608 1.003922-10.039216 6.023529-13.050981 5.019608-3.011765 9.035294-1.003922 14.054902 2.007843 59.231373 40.156863 119.466667 81.317647 178.698039 121.47451 9.035294 5.019608 9.035294 14.054902 0 20.078432z" fill="#2173BB" p-id="23404"></path></svg>