<?xml version="1.0" standalone="no"?><!DOCTYPE svg PUBLIC "-//W3C//DTD SVG 1.1//EN" "http://www.w3.org/Graphics/SVG/1.1/DTD/svg11.dtd"><svg t="1533368768197" class="icon" style="" viewBox="0 0 1024 1024" version="1.1" xmlns="http://www.w3.org/2000/svg" p-id="16625" xmlns:xlink="http://www.w3.org/1999/xlink" width="16" height="16"><defs><style type="text/css"></style></defs><path d="M460.799744 863.8976a51.2 51.2 0 1 1 51.2 53.4528 52.224 52.224 0 0 1-51.2-53.4528M300.902144 106.5984h422.0928A46.08 46.08 0 0 1 767.999744 153.6v524.6976a46.08 46.08 0 0 1-45.1072 47.0528H300.799744a46.08 46.08 0 0 1-45.056-47.0528V153.6a46.08 46.08 0 0 1 45.056-47.0528M153.599744 938.5984A83.8144 83.8144 0 0 0 235.519744 1024h552.96a83.7632 83.7632 0 0 0 81.92-85.4016V85.3504A83.712 83.712 0 0 0 788.479744 0H235.519744A83.7632 83.7632 0 0 0 153.599744 85.3504v853.248m0 0z" fill="#e6e6e6" p-id="16626"></path></svg>