<?xml version="1.0" standalone="no"?><!DOCTYPE svg PUBLIC "-//W3C//DTD SVG 1.1//EN" "http://www.w3.org/Graphics/SVG/1.1/DTD/svg11.dtd"><svg t="1533518144947" class="icon" style="" viewBox="0 0 1024 1024" version="1.1" xmlns="http://www.w3.org/2000/svg" p-id="6979" xmlns:xlink="http://www.w3.org/1999/xlink" width="16" height="16"><defs><style type="text/css"></style></defs><path d="M974.79307 401.450443l-77.990537 45.405739c4.365944 23.853106 7.237308 48.210044 7.237308 73.347702s-2.871364 49.503052-7.237308 73.339246l77.990537 45.405739c31.862876 18.546757 42.786094 59.628636 24.382109 91.751687l-66.614029 116.343824c-18.395726 32.123248-59.133261 43.130438-90.996138 24.583681l-78.796824-45.875942c-36.816623 31.602701-78.670768 57.42885-125.184659 74.036192l0 57.008991c0 37.09371-29.822774 67.176659-66.614029 67.176659l-133.219601 0c-36.782995 0-66.614029-30.074493-66.614029-67.176659l0-57.008991c-46.514088-16.607342-88.368233-42.433491-125.184659-74.036192L167.154192 871.627865c-31.862876 18.546757-72.600412 7.539567-90.996138-24.583681l-66.614029-116.335368c-18.395726-32.123051-7.480767-73.204931 24.382109-91.751687l77.998993-45.405739c-4.3744-23.84465-7.245764-48.210044-7.245764-73.339246s2.871364-49.494596 7.245764-73.347702L33.926134 401.458899c-31.862876-18.546757-42.777835-59.628636-24.382109-91.751884l66.614029-116.335368c18.395726-32.131507 59.133261-43.138697 90.996138-24.59194l78.805083 45.875942c36.816623-31.602701 78.662311-57.42885 125.184659-74.036192L371.143934 83.610465c0-37.09371 29.822774-67.168203 66.614029-67.168203l133.228057 0c36.791451 0 66.614029 30.074493 66.614029 67.168203l0 57.000535c46.514088 16.607342 88.359777 42.425035 125.184856 74.036192l78.796824-45.875942c31.862876-18.546757 72.600412-7.539567 90.996138 24.59194l66.614029 116.335368C1017.57936 341.821807 1006.656142 382.903686 974.79307 401.450443zM924.836727 314.199015l-33.315372-58.167684c-9.193635-16.061624-29.570859-21.569349-45.489711-12.300198l-92.549321 53.877256c-46.967379-53.423965-110.449672-91.751687-182.512822-106.512043l0-73.901877c0-18.555213-14.911387-33.584003-33.306916-33.584003l-66.614029 0c-18.395726 0-33.306916 15.02879-33.306916 33.584003l0 73.910136c-72.06315 14.760159-135.536987 53.079622-182.512822 106.512043L162.68756 243.739392c-15.927308-9.26915-36.296076-3.761426-45.497971 12.300198l-33.298656 58.167684c-9.202091 16.061624-3.74471 36.606595 12.182598 45.875942l92.91038 54.087283c-11.06599 33.41606-17.698779 68.872615-17.698779 106.04184 0 37.169226 6.62453 72.625584 17.698779 106.033384l-92.91038 54.087087c-15.927308 9.26915-21.384689 29.814318-12.182598 45.875942l33.298656 58.167684c9.202091 16.07008 29.570859 21.569349 45.497971 12.291742l92.541062-53.868996c46.975835 53.423965 110.458128 91.751687 182.521081 106.503587l0 73.910136c0 18.546953 14.911387 33.5842 33.307113 33.5842l66.614029 0c18.395726 0 33.307113-15.037247 33.307113-33.5842l0-73.918593c72.071409-14.751703 135.545443-53.079622 182.521081-106.503587l92.541062 53.868799c15.927308 9.277606 36.304336 3.778141 45.489711-12.291742l33.315569-58.167684c9.193635-16.061624 3.736254-36.606595-12.191055-45.875942l-92.918836-54.087087c11.074249-33.4078 17.698779-68.864158 17.698779-106.033384 0-37.169226-6.62453-72.625584-17.698779-106.04184l92.918836-54.087283C928.572981 350.80561 934.038818 330.260442 924.836727 314.199015zM504.363732 688.115838c-91.978431 0-166.53517-75.177973-166.53517-167.91215 0-92.742437 74.556739-167.928866 166.53517-167.928866 91.970171 0 166.53517 75.186429 166.53517 167.928866C670.899098 612.937865 596.333903 688.115838 504.363732 688.115838zM504.363732 419.451481c-55.17872 0-99.921141 45.10348-99.921141 100.752206 0 55.640467 44.733965 100.743947 99.921141 100.743947s99.921141-45.10348 99.921141-100.743947C604.284873 464.554961 559.550908 419.451481 504.363732 419.451481z" p-id="6980" fill="#8a8a8a"></path></svg>