<?xml version="1.0" standalone="no"?><!DOCTYPE svg PUBLIC "-//W3C//DTD SVG 1.1//EN" "http://www.w3.org/Graphics/SVG/1.1/DTD/svg11.dtd"><svg t="1533394350437" class="icon" style="" viewBox="0 0 1024 1024" version="1.1" xmlns="http://www.w3.org/2000/svg" p-id="2068" xmlns:xlink="http://www.w3.org/1999/xlink" width="16" height="16"><defs><style type="text/css"></style></defs><path d="M1.782277 534.682975v-45.151007c0-1.188184 0.594092-2.376369 0.594092-3.564553 1.782277-16.040489 2.970461-32.675071 4.752737-48.71556 6.535014-48.121468 20.793227-94.460659 40.992362-138.423481C76.637893 237.636878 115.253886 184.16858 164.563538 138.423481c17.228674-16.040489 35.645532-30.892794 55.250574-44.556914 42.180546-29.110518 87.925645-51.686021 136.641204-67.132418 49.309652-15.446397 99.807489-23.763688 152.087602-23.763688 26.140057 0 52.874205 1.782277 79.014262 5.34683 30.298702 4.752738 60.003312 11.287752 88.519737 21.387319 29.70461 10.099567 57.626943 22.575503 84.955184 38.0219 33.863255 19.01095 64.756049 40.992361 93.272474 67.132418 13.66412 12.475936 26.734149 25.545964 39.210085 39.804177 13.070028 14.852305 25.545964 30.298702 36.833716 46.339191 29.70461 41.586454 51.686021 87.331553 67.132418 136.047113 16.040489 49.903744 23.763688 100.995673 24.35778 153.275786 0 32.675071-2.970461 64.756049-8.317291 96.837027-7.723199 41.586454-20.199135 81.984723-38.0219 120.600716-23.763688 51.091929-55.250574 96.837028-93.866567 137.829389-18.416858 19.605042-38.615993 37.427808-60.003312 54.062389-31.486886 23.763688-64.756049 43.962822-100.40158 60.003312-47.527376 21.387319-96.837028 35.051439-148.523049 40.992361-30.298702 3.564553-60.597404 4.158645-90.896106 2.376369-30.892794-1.782277-60.597404-6.535014-90.302013-13.66412-44.556915-10.693659-86.73746-27.328241-126.541637-49.309652-38.615993-21.387319-74.261524-47.527376-105.748411-78.42017-14.258213-14.258213-27.922333-29.70461-40.992361-45.151007-21.387319-24.35778-38.615993-51.686021-54.06239-80.202446-20.199135-37.427808-35.645532-77.231985-45.745099-118.818439C11.881844 610.726775 7.129106 583.398535 5.34683 555.476201 2.970461 547.753003 2.376369 541.217989 1.782277 534.682975z m510.325194-453.292344c-238.23097 0-426.558195 190.109502-431.310933 421.211365-5.34683 247.142353 190.109502 436.657763 421.211366 440.816408 246.548261 4.752738 436.06367-190.703594 440.816408-421.805458 4.752738-246.548261-193.079963-440.222316-430.716841-440.222315z" p-id="2069" fill="#bfbfbf"></path><path d="M314.868863 559.040755c14.852305 0 24.35778 7.129106 29.70461 19.01095 8.911383 20.793227 21.981411 39.210085 38.615992 54.656482 26.734149 24.951872 58.221035 39.804177 94.460659 46.339191 20.793227 3.564553 41.586454 4.158645 62.973773 1.188184 29.70461-4.158645 57.032851-14.852305 81.984722-32.67507 22.575503-16.040489 40.398269-36.833716 53.468298-61.785589 2.970461-5.940922 5.940922-11.881844 10.099567-16.634581 3.564553-4.158645 8.317291-6.535014 13.664121-8.911383 4.752738-2.376369 10.693659-1.188184 16.040489 0 8.317291 1.782277 17.822766 11.287752 19.605042 20.199135 1.782277 8.317291 0.594092 15.446397-2.970461 23.169595-10.693659 23.763688-24.951872 44.556915-43.36873 63.567865-21.981411 22.575503-46.933283 39.804177-75.449709 52.280113-3.564553 1.782277-4.752738 3.564553-4.752737 7.129106 0 16.634581 1.188184 32.675071-1.782277 49.309652-1.188184 7.129106-3.564553 14.258213-6.535014 20.199135-7.129106 16.634581-19.01095 29.70461-33.863255 39.804177-14.258213 8.911383-30.298702 14.258213-46.933283 15.446397-15.446397 1.188184-30.298702-1.188184-43.962823-7.129106-13.66412-5.940922-26.140057-14.258213-36.239623-25.545965-10.099567-11.881844-16.634581-24.951872-20.199135-39.804177-1.782277-5.940922-1.782277-12.475936-1.782277-19.01095-0.594092-11.287752 0-23.169596 0-34.457347 0-2.376369-0.594092-4.158645-2.970461-4.752738-21.981411-9.505475-42.180546-21.387319-60.597403-36.833716-20.199135-17.228674-36.833716-36.833716-49.903745-60.003311-3.564553-6.535014-6.535014-12.475936-9.505475-19.01095-3.564553-7.723199-5.34683-15.446397-2.970461-23.763688 1.782277-5.940922 4.752738-10.693659 9.505475-14.258213 2.970461-4.752738 8.317291-8.317291 13.664121-7.723198zM380.813096 314.868863c35.051439 2.970461 58.815127 24.951872 58.815128 59.409219 0 35.051439-24.35778 56.438758-58.815128 60.003312-36.239624-3.564553-56.438758-26.140057-59.409219-60.003312 3.564553-35.645532 25.545964-56.438758 59.409219-59.409219zM652.907321 395.071309c-15.446397 0-29.110518-1.188184-42.180546-5.940922-7.129106-2.376369-14.852305-4.752738-17.822765-13.070028-0.594092-1.188184-0.594092-2.376369 0-3.564553 3.564553-8.911383 11.287752-11.287752 19.01095-13.664121 20.793227-6.535014 41.586454-6.535014 62.973772-3.564553 10.693659 1.188184 20.793227 4.158645 30.298702 10.099567 6.535014 4.158645 6.535014 14.258213 0 18.416858-12.475936 7.129106-25.545964 10.099567-39.804177 10.69366-4.752738 0.594092-9.505475 0.594092-12.475936 0.594092z" p-id="2070" fill="#bfbfbf"></path></svg>