<?xml version="1.0" standalone="no"?><!DOCTYPE svg PUBLIC "-//W3C//DTD SVG 1.1//EN" "http://www.w3.org/Graphics/SVG/1.1/DTD/svg11.dtd"><svg t="1533370055435" class="icon" style="" viewBox="0 0 1024 1024" version="1.1" xmlns="http://www.w3.org/2000/svg" p-id="20498" xmlns:xlink="http://www.w3.org/1999/xlink" width="16" height="16"><defs><style type="text/css"></style></defs><path d="M818.36032 767.24736c0 84.55168-68.59776 153.14432-153.14944 153.14432H222.78656c-84.55168 0-153.14944-68.59264-153.14944-153.14432V324.81792C69.64224 240.27136 138.24 171.6736 222.78656 171.6736h135.59808c9.04192 0 17.01888 7.44448 17.01888 17.01888 0 8.50944-5.85216 15.42144-13.82912 17.01376-26.58816 9.04192-50.51904 19.67616-70.72256 31.90784-2.6624 1.06496-5.31968 2.12992-8.50944 2.12992H222.78656c-46.7968 0-85.07904 38.28736-85.07904 85.07904v442.42432c0 46.7968 38.28736 85.08416 85.07904 85.08416h442.42432c46.80192 0 85.08416-38.29248 85.08416-85.08416v-113.79712c0-6.37952 3.72736-12.23168 9.5744-15.42144 10.62912-4.79232 20.1984-11.6992 28.70784-19.68128 4.79232-4.7872 12.23168-6.912 18.6112-4.2496 6.38464 2.6624 11.17184 8.50432 11.17184 15.42144v137.728z" fill="#2c2c2c" p-id="20499"></path><path d="M890.61888 347.61728s0.22528-12.99456-8.84736-19.3792l-236.44672-191.6416s-14.34112-11.20256-29.79328-2.688c0 0-14.5664 6.72256-14.5664 24.41728v83.33312s-270.1568 12.99456-290.09408 314.17856c0 13.99808 9.63072 27.66848 25.75872 27.66848 0 0 25.984 2.24256 28.672-25.98912 0 0 12.544-85.57056 235.43296-99.01056v81.09056s1.34656 18.82112 16.80384 24.64256c0 0 17.024 6.272 27.78112-4.48l235.88352-190.1312c0.01024-0.00512 10.5984-8.90368 9.41568-22.01088z" fill="#2c2c2c" p-id="20500"></path></svg>