<?xml version="1.0" standalone="no"?><!DOCTYPE svg PUBLIC "-//W3C//DTD SVG 1.1//EN" "http://www.w3.org/Graphics/SVG/1.1/DTD/svg11.dtd"><svg t="1533288564778" class="icon" style="" viewBox="0 0 1040 1024" version="1.1" xmlns="http://www.w3.org/2000/svg" p-id="19776" xmlns:xlink="http://www.w3.org/1999/xlink" width="16.25" height="16"><defs><style type="text/css"></style></defs><path d="M815.104319 88.496543c70.478168 0 127.631866 59.752896 127.631866 133.434012 0 73.680093-57.153698 133.431965-127.631866 133.431965-70.480214 0-127.633912-59.751872-127.633912-133.431965C687.470407 148.248416 744.624105 88.496543 815.104319 88.496543L815.104319 88.496543zM0.00307 468.490044c59.944254-1.928932 119.895671-3.865028 179.845041-5.8001 8.702196 9.66615 17.403369 19.332301 26.105564 29.006637 79.265298 63.97915 158.532643 127.965463 237.795894 191.9528 6.698562 5.39794-0.184195 29.628808-6.975878 34.157961-28.03552 18.685571-56.07104 37.389562-84.10963 56.072063-12.579503 8.378831-41.784662 1.51961-52.751435-7.614421-96.502891-80.576153-193.005782-161.157423-289.508673-241.72232C-0.125867 515.709485 1.548262 482.495012 0.00307 468.490044L0.00307 468.490044zM269.583878 175.244256c-31.558763 0.417509-16.630772 28.309766-1.174756 41.246403 75.870991 63.692624 151.746076 127.386272 227.617068 191.084013-39.432081 28.918633-78.875418 57.836243-118.29215 86.74669-20.544919 15.037485-3.052522 57.379848 12.367679 69.980841C541.444613 688.007643 692.77318 811.766294 844.107887 935.50448l179.846064 0c-5.200442-22.089088-2.797719-50.884924-20.85191-65.490573-128.418788-103.865579-256.82939-207.736275-385.249201-311.599807 42.143842-33.907251 84.284615-67.806315 126.436644-101.697193 13.632485-10.987239 7.900947-40.144302-4.789073-50.865481C647.710868 328.105736 555.905976 250.354931 464.116433 172.618453 399.275659 173.410492 334.427722 174.362166 269.583878 175.244256z" p-id="19777" fill="#1296db"></path></svg>