<?xml version="1.0" standalone="no"?><!DOCTYPE svg PUBLIC "-//W3C//DTD SVG 1.1//EN" "http://www.w3.org/Graphics/SVG/1.1/DTD/svg11.dtd"><svg t="1533518471447" class="icon" style="" viewBox="0 0 1024 1024" version="1.1" xmlns="http://www.w3.org/2000/svg" p-id="2868" xmlns:xlink="http://www.w3.org/1999/xlink" width="16" height="16"><defs><style type="text/css"></style></defs><path d="M512 930c-268.416 0-388.144-87.504-388.144-283.744 0-155.312 129.232-324.48 288.08-377.12l201.872 0.256c157.584 52.544 286.336 221.664 286.336 376.864 0 196.24-119.728 283.744-388.144 283.744z m-91.952-607.648c-29.488 10.928-58.336 26.736-85.776 46.992a408.528 408.528 0 0 0-81.056 79.616c-23.504 30.544-41.872 63.104-54.64 96.8-12.944 34.128-19.504 67.936-19.504 100.496 0 41.504 6.096 77.008 18.16 105.6a157.296 157.296 0 0 0 51.552 66.4c25.008 18.784 58.496 33.28 99.488 43.056 44.736 10.656 99.84 16.064 163.744 16.064 63.92 0 119.008-5.408 163.712-16.064 41.024-9.776 74.464-24.288 99.488-43.056a157.488 157.488 0 0 0 51.616-66.4c12.048-28.592 18.144-64.128 18.144-105.6 0-32.56-6.56-66.368-19.52-100.496-12.768-33.712-31.136-66.272-54.64-96.8a409.312 409.312 0 0 0-81.04-79.616c-27.472-20.256-56.32-36.048-85.728-46.96l-183.04-0.336-0.96 0.304z m83.6 463.968c-20.16 0-36.528-15.632-36.528-34.848 0-2.224 0.224-4.464 0.72-6.752l1.248-6.096h-1.856v-32.128l-72.32-0.064c-15.6 0-28.288-12-28.288-26.816 0-14.784 12.656-26.848 28.176-26.848h4.896v-0.096h67.536V610.72h-70.304l-1.952-0.032c-15.632 0-28.336-12.064-28.336-26.848 0-14.816 12.656-26.848 28.176-26.848h4.72v-0.064h60.64l1.056-3.808a9.28 9.28 0 0 1 1.888-3.808l2.896-3.504-78.464-74.816c-7.2-6.848-4.176-20.928 6.736-31.344 6.656-6.336 15.04-10.08 22.512-10.08 4.288 0 7.872 1.264 10.368 3.648l77.328 73.792 71.776-72.992c3.328-3.424 8.336-5.328 14.176-5.328 8.32 0 17.024 3.632 23.328 9.68 12.064 11.632 16.672 20 6.496 30.928l-79.552 77.552-0.848 3.904-0.88 4.592 5.248 1.472 66.72 0.128 1.52 0.096c15.568 0.096 28.16 12.128 28.16 26.816 0 14.72-12.56 26.72-27.984 26.848l-3.472 0.032h-69.456v41.968h71.2l1.552 0.128c15.568 0.096 28.16 12.128 28.16 26.816 0 14.72-12.56 26.752-27.984 26.816l-72.928 0.064v33.536l-0.368 1.44v2.72a38.4 38.4 0 0 1 0.816 7.28c0 19.184-16.4 34.816-36.528 34.816z m-89.216-549.008l-63.84-91.456 0.24-0.8-0.192-3.248c-0.512-2.368-0.848-3.776-0.848-5.152 0-9.888 5.104-18.576 13.024-22.128l2.384-2c7.616-1.728 84.416-18.24 146.848-18.528h1.808c63.088 0 133.424 15.744 144.976 18.448l0.576 1.264 1.84 0.848c7.824 3.552 12.944 12.256 12.944 22.096 0 1.376-0.368 2.848-0.736 4.352l-0.4 1.568 0.848 3.664-64.256 91.072H414.432z m97.92-90.672c-22.608 0.096-49.744 2.56-80.768 7.248l-8.224 1.248 20.656 29.552h136.064l20.912-29.952-8.16-1.28c-29.52-4.528-56.048-6.832-78.928-6.832h-1.552z m0 0" fill="#8a8a8a" p-id="2869"></path></svg>