<?xml version="1.0" standalone="no"?><!DOCTYPE svg PUBLIC "-//W3C//DTD SVG 1.1//EN" "http://www.w3.org/Graphics/SVG/1.1/DTD/svg11.dtd"><svg t="1533288407278" class="icon" style="" viewBox="0 0 1024 1024" version="1.1" xmlns="http://www.w3.org/2000/svg" p-id="15598" xmlns:xlink="http://www.w3.org/1999/xlink" width="16" height="16"><defs><style type="text/css"></style></defs><path d="M147.714 137l0 750c0 41.434 32.601 75 72.857 75L830.75 962c25.131 0 45.536-21.004 45.536-46.877s-20.404-46.873-45.536-46.873L275.214 868.25c-20.04 0-36.429-16.886-36.429-37.5 0-20.619 16.389-37.504 36.429-37.504l528.214 0c40.256 0 72.857-33.557 72.857-75L876.285 137c0-41.439-32.601-75-72.857-75l-255 0 0 337.316c0 4.869-1.826 9.741-5.284 13.496-7.097 7.303-18.763 7.303-25.864 0-4.74-5.074-78.137-67.881-78.137-67.881s-73.401 62.807-78.141 67.881c-7.097 7.303-18.767 7.303-25.864 0-3.459-3.754-5.284-8.627-5.284-13.496L329.854 62 220.571 62C180.316 62 147.714 95.561 147.714 137z" fill="#93ca76" p-id="15599"></path></svg>