<?xml version="1.0" standalone="no"?><!DOCTYPE svg PUBLIC "-//W3C//DTD SVG 1.1//EN" "http://www.w3.org/Graphics/SVG/1.1/DTD/svg11.dtd"><svg t="1533274789554" class="icon" style="" viewBox="0 0 1024 1024" version="1.1" xmlns="http://www.w3.org/2000/svg" p-id="3649" xmlns:xlink="http://www.w3.org/1999/xlink" width="16" height="16"><defs><style type="text/css"></style></defs><path d="M512.1302581250001 214.230665c-83.886024375 0-152.2713703125 67.0827684375-152.2713703125 149.40569906250002s68.2550878125 149.40569906250002 152.2713703125 149.405698125c83.886024375 0 152.1411121875-66.9525103125 152.1411121875-149.405698125 0-82.322930625-68.124830625-149.40569906250002-152.1411121875-149.40569906250002m0 232.64043375c-46.632293437499996 0-84.66757125000001-37.3839890625-84.66757125000001-83.2347346875s37.905020625000006-83.234735625 84.66757125000001-83.234735625c46.632293437499996 0 84.537313125 37.3839890625 84.537313125 83.234735625 0.130258125 45.8507465625-37.905020625000006 83.234735625-84.537313125 83.2347346875m356.2550878125-60.960650625C868.3853459375 192.868385 708.5590231250001 35.90773437500002 512.1302581250001 35.90773437500002S156.00542750000005 192.868385 156.00542750000005 385.910448125c0 151.35956625 219.35413875 456.16282218749996 313.660786875 580.298506875 9.899593125 13.025780625 25.791045 20.8412484375 42.46404375 20.8412484375s32.564450625-7.8154678125 42.4640428125-20.8412484375c94.43690624999999-124.135685625 313.791045-429.0691996875 313.791045-580.298506875M517.7313434375 913.1940303125l-5.6010853125 7.424694375-5.60108625-7.424694375C328.46675749999997 676.5156040625 217.7476259375 474.4857528125 217.7476259375 385.910448125c0-159.435549375 132.08141156250002-289.1723203125 294.3826321875-289.1723203125s294.3826321875 129.73677093749998 294.3826321875 289.1723203125c0.130258125 88.575305625-110.5888734375 290.6051559375-288.781546875 527.2835821875001" fill="#85494f" p-id="3650"></path></svg>