<?xml version="1.0" standalone="no"?><!DOCTYPE svg PUBLIC "-//W3C//DTD SVG 1.1//EN" "http://www.w3.org/Graphics/SVG/1.1/DTD/svg11.dtd"><svg t="1533287923110" class="icon" style="" viewBox="0 0 1024 1024" version="1.1" xmlns="http://www.w3.org/2000/svg" p-id="6277" xmlns:xlink="http://www.w3.org/1999/xlink" width="16" height="16"><defs><style type="text/css"></style></defs><path d="M570.6 322.2c1.6 2 4 3.2 6.5 3.2 0.7 0 1.5-0.1 2.2-0.3L801 264c2.8-0.8 5-2.9 5.8-5.7 0.8-2.8 0.1-5.8-1.9-7.9l-72.3-77.6c-1.6-1.7-3.8-2.6-6.1-2.6-1.9 0-3.8 0.7-5.3 1.9L564.7 301.6c-3.5 2.9-4 7.9-1.2 11.5l7.1 9.1zM223 264l221.7 61.1c0.7 0.2 1.5 0.3 2.2 0.3 2.6 0 4.9-1.2 6.5-3.2l7.1-9.1c2.8-3.6 2.3-8.6-1.2-11.5L302.8 172.1c-1.5-1.2-3.4-1.9-5.3-1.9-2.3 0-4.5 1-6.1 2.6l-72.3 77.6c-2 2.1-2.7 5.1-1.9 7.9 0.8 2.8 3 4.9 5.8 5.7zM784.2 344.3c-5.8-1.2-11.7-1.8-17.6-1.8H257.3c-5.9 0-11.8 0.6-17.6 1.8-47.2 9.7-77.5 55.8-67.8 102.9L241 782.6c8.5 41.5 45.1 71.2 87.4 71.2h366.9c42.4 0 78.9-29.8 87.4-71.2L852 447.2c9.8-47.1-20.6-93.2-67.8-102.9z m-383 255.6c-8.7 8.4-19.5 12.6-32.3 12.6-11.7 0-21.7-4.2-29.9-12.6-8.3-8.4-12.4-18.6-12.4-30.6 0-12.8 4.1-23.4 12.4-31.9 8.3-8.4 18.7-12.6 31.2-12.6 12 0 22.3 4.3 31 13s13 19 13 31c0 12.4-4.4 22.7-13 31.1zM574 696.1c-18.7 12.7-46.3 9.7-62-2.3-15.7 12-43.3 15-62 2.3-7.8-5.2-16.9-13.8-16.9-24.2 0-6.7 2.2-13.2 9.2-14.2 7.1-1 10.6 3.5 15.3 9.7 7.4 9.7 16.3 13.9 26.8 12.6 17-3.4 15.2-21.6 27.6-22 12.3 0.5 10.6 18.7 27.6 22 10.5 1.3 19.4-2.9 26.8-12.6 4.7-6.1 8.2-10.7 15.3-9.7 7.1 1 9.2 7.5 9.2 14.2 0 10.3-9.1 18.9-16.9 24.2z m111.5-96.2c-8.7 8.4-19.5 12.6-32.3 12.6-11.7 0-21.7-4.2-29.9-12.6-8.3-8.4-12.4-18.6-12.4-30.6 0-12.8 4.1-23.4 12.4-31.9 8.3-8.4 18.7-12.6 31.2-12.6 12 0 22.3 4.3 31 13s13 19 13 31c0.1 12.4-4.3 22.7-13 31.1z" fill="#FFC037" p-id="6278"></path></svg>